# xmcd
#
# Track frame offsets:
# 150
# 14788
# 31439
# 43483
# 61446
# 78122
# 92745
# 108456
# 123843
# 138441
# 155140
# 171160
# 185621
# 201588
#
# Disc length: 2864 seconds
#
#
# Revision: 0
# Processed by: cddbd v1.5.1PL0 Copyright (c) Steve Scherf et al.
# Submitted via: FreeRIP 2.70 
#
DISCID=ce0b2e0e
DTITLE=Mannakorn - Betra en best
DYEAR=2004
DGENRE=
TTITLE0=Hafið
TTITLE1=María
TTITLE2=Fæddist til að elska
TTITLE3=Eian nótt
TTITLE4=Við áttum saman
TTITLE5=Daglega fer mér fram
TTITLE6=Enginn eins og þú
TTITLE7=Á úthafsins öldum
TTITLE8=Satan er til
TTITLE9=Meðan sigla himinský
TTITLE10=Daríó
TTITLE11=Fæddur lúser
TTITLE12=Laugardagskvöld í Laugardagskvöldinu
TTITLE13=Skuggar
EXTD=
EXTT0=
EXTT1=
EXTT2=
EXTT3=
EXTT4=
EXTT5=
EXTT6=
EXTT7=
EXTT8=
EXTT9=
EXTT10=
EXTT11=
EXTT12=
EXTT13=
PLAYORDER=
